<svg width="126" height="93" viewBox="0 0 126 93" fill="none" xmlns="http://www.w3.org/2000/svg">
<path d="M112.931 67.5449L80.5889 72.0898C80.5177 71.8582 80.4664 71.703 80.4326 71.625C79.9688 71.5029 79.4678 71.4131 78.9307 71.3545C78.3986 71.291 77.8299 71.2588 77.2246 71.2588C75.7354 71.2588 74.5098 71.7325 73.5479 72.6797C73.4002 72.8258 73.2645 72.9785 73.1396 73.1367L64.4746 74.3545C64.4782 74.0742 64.4831 73.7601 64.4893 73.4121C64.4746 73.2803 64.4668 73.1094 64.4668 72.8994C64.4668 72.6604 64.4815 72.4775 64.5107 72.3506C64.6719 72.2871 64.877 72.2256 65.126 72.167C65.3798 72.1035 65.6045 72.0381 65.7998 71.9697C65.8096 71.8381 65.8144 71.7304 65.8145 71.6475C65.8145 71.5841 65.8125 71.5056 65.8076 71.4131C65.7149 71.418 65.49 71.4326 65.1338 71.457C64.499 71.4961 64.0371 71.5156 63.749 71.5156C63.6855 71.5156 63.5244 71.5107 63.2656 71.501L61.1709 71.4131L61.1934 72.0576C61.2568 72.0673 61.3421 72.0742 61.4492 72.0791C61.8984 72.1035 62.2236 72.1621 62.4238 72.2549C62.4531 72.3622 62.4697 72.4404 62.4746 72.4893L62.4824 72.8047L62.5186 73.6396L62.4971 74.0352L62.5059 74.6318L51.5635 76.1689L51.5625 76.0859V73.9326L51.5557 72.9512C51.5557 72.8292 51.5704 72.6727 51.5996 72.4824C51.8046 72.4629 51.9756 72.4531 52.1123 72.4531C53.0301 72.4531 53.5479 72.4648 53.665 72.4893C53.743 72.5088 53.8116 72.5509 53.8701 72.6143C53.9094 72.6543 54.0024 72.8547 54.1484 73.2148C54.2997 73.5759 54.4386 73.8517 54.5654 74.042C54.7168 74.0273 54.8927 73.9882 55.0928 73.9248C55.1123 73.8322 55.122 73.7224 55.1221 73.5957L55.1299 73.2217L55.1221 72.5703C55.1221 71.8919 55.1201 71.3838 55.1152 71.0469C55.0178 71.042 54.9443 71.0391 54.8955 71.0391L54.5732 71.0469C54.5391 71.1249 54.5117 71.1856 54.4922 71.2295C54.419 71.4199 54.3506 71.5371 54.2871 71.5811L53.8555 71.6475H51.5918L49.9365 71.6328L49.0508 71.6396L48.9043 71.6621C48.6113 71.667 48.2764 71.6689 47.9004 71.6689C47.2959 71.6689 46.9616 71.6591 46.8975 71.6396C46.8242 71.5664 46.7187 71.4129 46.582 71.1787C46.5674 71.1543 46.5429 71.1151 46.5088 71.0615H46.0547C46.0205 71.1593 45.9647 71.3472 45.8867 71.625C45.6182 72.577 45.4082 73.2119 45.2568 73.5293C45.3204 73.6025 45.464 73.6983 45.6885 73.8154C45.7471 73.8154 45.838 73.7372 45.96 73.5811C46.3796 73.0394 46.6943 72.7072 46.9043 72.585C47.0605 72.4971 47.3683 72.4531 47.8271 72.4531C48.6619 72.4531 49.1551 72.4629 49.3066 72.4824C49.3506 72.4873 49.3848 72.502 49.4092 72.5264C49.4335 72.5459 49.4512 72.5772 49.4609 72.6211C49.4902 72.7823 49.5049 73.2442 49.5049 74.0059L49.5361 76.4541L38.3877 78.0215L37.9258 77.2725C37.7988 77.0674 37.6328 76.8183 37.4277 76.5254C37.3301 76.3887 37.252 76.2686 37.1934 76.166C37.8574 75.9609 38.3486 75.6582 38.666 75.2578C38.9883 74.8526 39.1494 74.4033 39.1494 73.9102C39.1494 73.251 38.8535 72.668 38.2627 72.1602C37.6719 71.6475 36.876 71.3906 35.875 71.3906C35.2404 71.3906 34.6375 71.4199 34.0664 71.4785L33.1504 71.5225L32.7627 71.5449C32.7334 71.5449 32.5429 71.5303 32.1914 71.501C31.8496 71.5059 31.6221 71.5078 31.5098 71.5078C31.3048 71.5078 31.0799 71.5274 30.8359 71.5664L30.8066 71.6475L30.8213 72.0869C30.9531 72.1113 31.217 72.1357 31.6123 72.1602L32.0449 72.248C32.0693 72.5315 32.0811 73.1813 32.0811 74.1963C32.081 74.66 32.0742 75.1584 32.0596 75.6904L32.0449 76.0859L32.0596 76.7666L32.0303 77.6455L32.0352 78.9141L24.2822 80.0039C24.2449 79.9436 24.2008 79.8606 24.1504 79.7549C23.9698 79.379 23.8359 79.0664 23.748 78.8174C23.5772 78.3587 23.4424 78.0146 23.3447 77.7852C23.1787 77.4043 22.9814 76.913 22.752 76.3125C22.5225 75.7072 22.2636 75.0848 21.9756 74.4453L20.7012 71.4277L20.6348 71.2959H20.3057C20.1592 71.2959 20.0049 71.293 19.8438 71.2881L18.1084 75.8438L16.6289 79.7188C16.5118 79.9432 16.4111 80.085 16.3281 80.1436C16.2497 80.2021 16.0227 80.2677 15.6475 80.3408C15.4131 80.3848 15.249 80.4219 15.1562 80.4512L15.1416 80.9492H15.2734C15.6006 80.9492 15.9453 80.9199 16.3066 80.8613L16.6064 80.8096C17.1351 80.848 17.574 80.8768 17.9229 80.8975L13.9033 81.4629L11.9619 67.6445L17.3506 66.8857L17.3516 66.8877C17.3541 66.887 17.3568 66.8854 17.3594 66.8848L19.3857 66.6006L19.9561 70.6572L54.7676 65.7637C55.745 66.1127 56.7447 66.4406 57.7676 66.7441C58.001 66.1337 58.3348 65.6165 58.7471 65.2041L85.2725 61.4766V66.7441H85.7998C87.4318 66.7441 88.4404 66.1197 88.4404 65.9277V61.0312L100.393 59.3516H107.064C107.736 59.3515 108.216 59.1119 108.36 58.584C108.25 58.4834 108.134 58.3829 108.018 58.2793L111.558 57.7822L112.931 67.5449ZM75.3418 72.8926C74.7121 73.6933 74.3975 74.8089 74.3975 76.2393C74.3975 77.0693 74.4512 77.6602 74.5586 78.0117C74.7344 78.583 74.9561 79.0498 75.2246 79.4111C75.4296 79.6844 75.6984 79.9014 76.0303 80.0625C76.4599 80.2822 76.9191 80.3925 77.4072 80.3926C77.9442 80.3926 78.462 80.2264 78.96 79.8945C79.4629 79.5576 79.9443 79.0566 80.4033 78.3926C80.5839 78.3584 80.8205 78.3389 81.1133 78.334C81.0937 78.5195 81.0625 78.7129 81.0186 78.9131C81.0038 78.9919 80.9471 79.3018 80.8496 79.8428L80.7842 80.0625L80.6816 80.4072C80.3838 80.6366 79.9637 80.8096 79.4219 80.9268C78.8848 81.0391 78.2227 81.0957 77.4365 81.0957C76.8361 81.0957 76.2674 81.039 75.7305 80.9268C75.1982 80.8145 74.7412 80.6367 74.3604 80.3926C73.8039 80.0411 73.3672 79.66 73.0498 79.25C72.7324 78.8398 72.4951 78.3926 72.3389 77.9092C72.1875 77.4258 72.1123 76.8838 72.1123 76.2832C72.1123 75.0526 72.4551 74.0041 73.1396 73.1367L75.4053 72.8184C75.3846 72.8429 75.3619 72.8669 75.3418 72.8926ZM101.333 71.4717C101.611 71.4863 101.854 71.5078 102.059 71.5371C102.444 71.5908 102.891 71.6182 103.398 71.6182C103.574 71.6182 104.026 71.6035 104.754 71.5742C105.843 71.5303 106.826 71.5078 107.705 71.5078L109.031 71.4932C109.329 71.4932 109.769 71.5303 110.35 71.6035C110.437 71.7011 110.481 71.8332 110.481 71.999V73.5078L110.496 73.8076C110.496 73.8369 110.493 73.8809 110.488 73.9395L110.188 73.9541C110.149 73.9541 110.066 73.9492 109.939 73.9395C109.896 73.8419 109.837 73.698 109.764 73.5078L109.471 72.9873C109.358 72.7676 109.202 72.543 109.002 72.3135C108.88 72.2793 108.724 72.2598 108.533 72.2549C108.484 72.25 108.335 72.2383 108.086 72.2188C107.632 72.1797 107.143 72.1602 106.621 72.1602C106.026 72.1602 105.493 72.1699 105.024 72.1895C105.01 72.3124 105.003 72.7932 105.003 73.6318L105.018 74.8623V75.7852C105.139 75.7998 105.244 75.8076 105.332 75.8076C106.206 75.8076 106.829 75.79 107.2 75.7559C107.571 75.7217 107.801 75.6757 107.889 75.6172C107.976 75.5538 108.055 75.4461 108.123 75.2949C108.167 75.1875 108.252 74.8281 108.379 74.2178L108.475 74.2109L108.899 74.2178C108.919 74.6523 108.929 74.9824 108.929 75.207C108.929 75.7194 108.924 76.0489 108.914 76.1953C108.909 76.3418 108.906 76.457 108.906 76.54C108.906 76.6719 108.914 76.8842 108.929 77.1768C108.943 77.4648 108.95 77.6797 108.95 77.8213V77.9824H108.431C108.411 77.9043 108.374 77.7432 108.32 77.499C108.223 77.045 108.135 76.7617 108.057 76.6494C107.998 76.5616 107.9 76.4961 107.764 76.4521C107.666 76.418 107.304 76.4004 106.68 76.4004C105.943 76.4004 105.389 76.4199 105.018 76.459C105.013 76.5859 105.01 76.6689 105.01 76.708C105.01 77.2891 105.02 77.7725 105.039 78.1582L105.024 79.7402C105.024 79.9258 105.091 80.0527 105.223 80.1211C105.423 80.2236 106.036 80.2754 107.061 80.2754C107.739 80.2754 108.315 80.2236 108.789 80.1211C109.116 80.0479 109.404 79.8845 109.653 79.6309C109.985 79.3038 110.262 78.8445 110.481 78.2539C110.633 78.2393 110.757 78.2315 110.854 78.2314C110.908 78.2314 110.989 78.2344 111.097 78.2393C111.082 78.3611 111.069 78.464 111.06 78.5469L111.016 78.7666L110.745 80.1504L110.613 80.9854C110.296 81 110.044 81.0078 109.858 81.0078C109.585 81.0078 108.855 80.9834 107.669 80.9346C106.834 80.9004 105.828 80.8828 104.651 80.8828C104.065 80.8828 103.345 80.9072 102.49 80.9561H102.183L101.297 80.9854V80.4805C101.39 80.4561 101.575 80.4287 101.854 80.3994C102.361 80.3408 102.713 80.2627 102.908 80.165C102.962 80.0236 102.988 79.8455 102.988 79.6309C102.988 79.5479 102.986 79.406 102.981 79.2061L102.988 78.9785L102.967 76.2178L102.974 75.3896L102.938 74.2178L102.944 73.3906L102.879 72.4824C102.879 72.4581 102.874 72.4089 102.864 72.3359C102.815 72.2823 102.742 72.2481 102.645 72.2334C102.591 72.2236 102.517 72.209 102.425 72.1895C102.147 72.1309 101.878 72.0967 101.619 72.0869C101.526 72.082 101.419 72.0723 101.297 72.0576L101.333 71.4717ZM34.0293 79.96C34.166 80.043 34.3447 80.1064 34.5645 80.1504C34.9453 80.2285 35.2725 80.3213 35.5459 80.4287C35.5459 80.668 35.5361 80.8486 35.5166 80.9707C35.424 80.9658 35.3653 80.9639 35.3408 80.9639L35.04 80.9785C33.9906 80.8858 33.3683 80.8389 33.1729 80.8389C33.0459 80.8389 32.9551 80.8418 32.9014 80.8467L31.8906 80.9121C31.5832 80.9463 31.3026 80.9639 31.0488 80.9639H30.7334C30.7237 80.8424 30.7188 80.7639 30.7188 80.7295C30.7188 80.6758 30.7266 80.5996 30.7412 80.502C30.8681 80.4337 31.0559 80.3848 31.3047 80.3555C31.5536 80.3213 31.7784 80.2675 31.9785 80.1943C32.0028 80.0971 32.0175 80.0264 32.0225 79.9824C32.0322 79.9141 32.0371 79.6794 32.0371 79.2793L32.0352 78.9141L34.0645 78.6289L34.0293 79.96ZM39.0977 79.1689C39.3906 79.6719 39.5811 79.9678 39.6689 80.0557C39.7617 80.1387 39.9502 80.2315 40.2334 80.334C40.453 80.417 40.6211 80.5 40.7383 80.583C40.7675 80.6659 40.7822 80.7393 40.7822 80.8027C40.7822 80.8466 40.7803 80.9026 40.7754 80.9707H40.5771L40.4307 80.9785L40.0498 80.9268H39.75C39.5938 80.9023 39.4004 80.8906 39.1709 80.8906L38.4385 80.8828C38.3843 80.8829 38.2132 80.9005 37.9258 80.9346C37.7942 80.9492 37.6894 80.961 37.6113 80.9707L37.3623 80.4873C37.1572 80.1211 37.0127 79.8477 36.9297 79.667C36.784 79.3458 36.5654 78.8967 36.2783 78.3174L38.3877 78.0215L39.0977 79.1689ZM51.5918 78.4072L51.585 79.3594C51.585 79.6963 51.6143 79.9502 51.6729 80.1211C51.751 80.1552 51.8948 80.1875 52.1045 80.2168C52.1436 80.2217 52.3243 80.2608 52.6465 80.334C52.793 80.3682 52.9229 80.4072 53.0352 80.4512C53.0595 80.6266 53.0713 80.7344 53.0713 80.7734C53.0712 80.8174 53.0644 80.8812 53.0498 80.9639C52.9425 80.9687 52.8545 80.9707 52.7861 80.9707C52.2832 80.9707 51.8555 80.9541 51.5039 80.9199C51.1524 80.8809 50.5153 80.8613 49.5928 80.8613C49.4463 80.8613 49.0165 80.8906 48.3037 80.9492C48.0257 80.9687 47.8449 80.9785 47.7617 80.9785C47.7568 80.9053 47.752 80.8486 47.7471 80.8096L47.7393 80.6416V80.583C47.8467 80.4414 48.0498 80.3359 48.3477 80.2676C48.8553 80.1455 49.2071 80.0361 49.4023 79.9385C49.4511 79.8458 49.4804 79.7234 49.4902 79.5723C49.5244 78.9864 49.541 78.0535 49.541 76.7744L49.5361 76.4541L51.5635 76.1689L51.5918 78.4072ZM64.4746 74.3545C64.4697 74.7388 64.4668 75.0595 64.4668 75.3164L64.4746 77.25L64.4521 78.2314L64.4668 79.6963L64.46 79.9746C64.46 80.0137 64.4697 80.0703 64.4893 80.1436C64.7869 80.207 65.0578 80.251 65.3018 80.2754C65.3458 80.2803 65.4952 80.2998 65.749 80.334C65.7685 80.4802 65.7783 80.6027 65.7783 80.7002C65.7783 80.7539 65.7754 80.8373 65.7705 80.9492C65.707 80.9492 65.6582 80.9512 65.624 80.9561C65.4688 80.9658 65.3786 80.9706 65.3535 80.9707C65.3194 80.9707 65.2556 80.9638 65.1631 80.9492C65.0947 80.9395 64.7695 80.9053 64.1885 80.8467L62.8926 80.832C62.6339 80.832 62.2576 80.8565 61.7646 80.9053C61.4429 80.9345 61.2326 80.9511 61.1348 80.9561V80.4287C61.2325 80.3994 61.3939 80.3583 61.6182 80.3047C61.9354 80.2266 62.1719 80.1455 62.3281 80.0625C62.416 79.9111 62.46 79.7012 62.46 79.4326L62.4531 78.5684L62.4678 76.8984L62.46 76.5029C62.4941 75.5361 62.5117 75.0381 62.5117 75.0088L62.5059 74.6318L64.4746 74.3545ZM91.8057 71.3838C91.8789 71.3838 91.9307 71.4033 91.96 71.4424C91.9988 71.4962 92.0186 71.5942 92.0186 71.7354C92.0185 71.8474 91.9911 71.9327 91.9375 71.9912C91.9081 72.0254 91.8007 72.0547 91.6152 72.0791L90.707 72.292C90.6826 72.3018 90.6413 72.3214 90.583 72.3506C90.5635 72.3847 90.5488 72.4141 90.5391 72.4385L90.5312 72.6436L90.5098 73.1045V73.2363L90.5166 73.3174C90.5165 73.3431 90.5097 73.4772 90.4951 73.7197C90.4902 73.7832 90.4873 73.8467 90.4873 73.9102C90.4873 73.9883 90.4922 74.1201 90.502 74.3057C90.5166 74.5986 90.5244 74.8555 90.5244 75.0752C90.5244 75.329 90.5166 75.6194 90.502 75.9463C90.4971 76.0684 90.4951 76.2275 90.4951 76.4229L90.4658 79.8945C90.4659 80.0407 90.4903 80.1358 90.5391 80.1797L91.2344 80.209L91.667 80.2021L92.1279 80.2168C92.9141 80.2168 93.5322 80.126 93.9814 79.9453C94.3182 79.8086 94.5381 79.6718 94.6406 79.5352C94.8064 79.3888 94.9405 79.2302 95.043 79.0596C95.1504 78.8887 95.2706 78.6053 95.4023 78.21H95.6367C95.7538 78.21 95.8859 78.2197 96.0322 78.2393V78.4443C96.0322 78.796 95.9882 79.4115 95.9004 80.29C95.8662 80.6413 95.832 80.8565 95.7979 80.9346C95.6855 80.9541 95.6143 80.9639 95.585 80.9639H95.3145L94.9336 80.9707C94.8896 80.9707 94.5986 80.9512 94.0615 80.9121C93.9637 80.9072 93.4975 80.8906 92.6631 80.8613C91.8281 80.832 91.0098 80.8174 90.209 80.8174L88.7148 80.8613C88.1389 80.876 87.5995 80.9024 87.0967 80.9414H86.9863C86.9571 80.9414 86.9108 80.9394 86.8477 80.9346C86.8379 80.8809 86.833 80.834 86.833 80.7949C86.833 80.5902 86.8497 80.4414 86.8838 80.3486C87.0352 80.3047 87.248 80.2627 87.5215 80.2236C87.7994 80.1798 87.9628 80.1582 88.0117 80.1582C88.2021 80.1533 88.3291 80.1211 88.3926 80.0625C88.4219 79.9453 88.4365 79.8477 88.4365 79.7695L88.4219 78.832L88.4658 77.8799V77.2725L88.4736 76.5547L88.459 75.793L88.4883 74.1592L88.4951 73.4199V73.3174C88.4609 72.8047 88.4268 72.5234 88.3926 72.4746C88.3633 72.4209 88.2242 72.3554 87.9756 72.2773C87.9512 72.2676 87.8582 72.2304 87.6973 72.167C87.5752 72.1182 87.4648 72.084 87.3672 72.0645C87.1967 72.0206 87.0772 71.9695 87.0088 71.9111C86.999 71.7845 86.9942 71.6865 86.9941 71.6182C86.9941 71.5792 86.9961 71.5203 87.001 71.4424C87.0449 71.418 87.0918 71.4053 87.1406 71.4053C87.2584 71.4053 87.6834 71.4248 88.415 71.4639L89.4619 71.457L90.2383 71.4717C90.5752 71.4717 91.0078 71.4492 91.5352 71.4053C91.691 71.3907 91.7811 71.3838 91.8057 71.3838ZM24.2822 80.0039C24.3173 80.0605 24.3465 80.0977 24.3701 80.1143C24.458 80.1874 24.5998 80.2363 24.7949 80.2607C24.9951 80.2852 25.21 80.3408 25.4395 80.4287C25.4639 80.5898 25.4766 80.71 25.4766 80.7881C25.4765 80.8223 25.4736 80.8763 25.4688 80.9492C25.1076 80.9492 24.7098 80.9316 24.2754 80.8975C23.841 80.8633 23.4501 80.8467 23.1035 80.8467C22.718 80.8467 22.4395 80.8516 22.2686 80.8613L21.0234 80.9268L20.6641 80.9414C20.6641 80.7919 20.6704 80.6481 20.6816 80.5098L24.2822 80.0039ZM18.7744 80.9346C18.6117 80.9346 18.3279 80.9214 17.9229 80.8975L18.7881 80.7754C18.7875 80.8261 18.7836 80.8795 18.7744 80.9346ZM21.0889 77.6094L21.668 79.0449L21.9609 79.7627C21.9852 79.8309 21.9971 79.8967 21.9971 79.96C21.9971 80.0234 21.9727 80.0801 21.9238 80.1289C21.8843 80.1631 21.7425 80.2121 21.499 80.2754L20.6865 80.4512C20.6847 80.4706 20.6832 80.4901 20.6816 80.5098L18.7881 80.7754C18.7881 80.7721 18.7891 80.7689 18.7891 80.7656C18.7891 80.6973 18.7871 80.5752 18.7822 80.3994C18.4795 80.3555 18.3057 80.3291 18.2617 80.3193C17.9444 80.2803 17.7295 80.2139 17.6172 80.1211C17.549 80.0674 17.5147 79.9772 17.5146 79.8506C17.5146 79.7578 17.5616 79.5819 17.6543 79.3232C17.9765 78.4102 18.1885 77.836 18.291 77.6016L21.0889 77.6094ZM34.5566 76.4375C34.9131 76.4375 35.165 76.4883 35.3115 76.5908C35.4092 76.6544 35.5801 76.9259 35.8242 77.4043C35.9923 77.7373 36.1421 78.0425 36.2783 78.3174L34.0645 78.6289L34.0664 78.583L34.0371 76.957C34.0371 76.762 34.044 76.5936 34.0586 76.4521C34.2927 76.4424 34.4589 76.4375 34.5566 76.4375ZM19.6465 74.0059C19.7929 74.3086 19.9835 74.7504 20.2178 75.3311C20.4521 75.9072 20.6426 76.4131 20.7891 76.8477L20.6055 76.8545C20.4003 76.8545 19.7264 76.8477 18.584 76.833L19.6465 74.0059ZM34.6445 72.123C35.1182 72.123 35.4629 72.1602 35.6777 72.2334C35.9705 72.331 36.2071 72.4748 36.3877 72.665C36.5146 72.7969 36.6201 73 36.7031 73.2734C36.7909 73.5419 36.835 73.8303 36.835 74.1377C36.8348 74.6355 36.661 75.0333 36.3145 75.3311C35.9678 75.6288 35.3797 75.7783 34.5498 75.7783C34.4424 75.7783 34.2714 75.7734 34.0371 75.7637V75.5586C34.042 75.2022 34.0488 74.9111 34.0586 74.6865L34.0518 73.8887L34.0664 73.2881L34.0586 72.2988L34.0664 72.1602C34.2274 72.1358 34.4201 72.1231 34.6445 72.123ZM80.8203 72.8779C80.9081 73.1903 80.9551 73.5226 80.96 73.874H80.293C79.8242 73.21 79.3408 72.7334 78.8428 72.4453C78.7899 72.4142 78.7358 72.3862 78.6816 72.3584L80.5889 72.0898C80.6514 72.2933 80.729 72.5561 80.8203 72.8779ZM77.1729 72.0059C77.7227 72.0059 78.2254 72.1244 78.6816 72.3584L75.4053 72.8184C75.8611 72.2778 76.449 72.0059 77.1729 72.0059ZM19.3477 66.335C18.6955 66.5238 18.0329 66.7075 17.3594 66.8848L17.3506 66.8857L16.9678 66.1201C17.7285 65.8666 18.4748 65.6034 19.207 65.333L19.3477 66.335ZM43.957 60.3477C45.1491 61.1589 46.3944 61.9168 47.6924 62.6221L19.3857 66.6006L19.3477 66.335C23.2531 65.204 26.7776 63.8661 29.9463 62.3164L43.957 60.3477ZM54.9004 61.6094C57.0153 62.3525 59.2217 62.9911 61.5117 63.5283L61.3682 64.0557C60.3466 64.1158 59.437 64.514 58.7471 65.2041L54.7676 65.7637C52.2581 64.8674 49.8991 63.8211 47.6924 62.6221L54.9004 61.6094ZM24.6104 63.0664C22.9033 63.8767 21.1028 64.633 19.207 65.333L19 63.8555L24.6104 63.0664ZM56.4717 30.1201C56.4717 30.1201 59.2077 32.3281 60.8877 33.9121C60.7436 34.44 60.3116 34.6797 59.6396 34.6797H52.6318C50.4718 42.5037 46.8724 49.0804 41.4004 54.3604C43.939 56.3691 46.7525 58.0821 49.8066 59.5254L43.957 60.3477C42.224 59.1683 40.6026 57.8771 39.0957 56.4717C36.4497 58.6767 33.4105 60.6223 29.9463 62.3164L24.6104 63.0664C29.6085 60.6939 33.8031 57.8573 37.2236 54.5996C32.4718 49.4157 29.0643 42.8875 27.1924 34.6797H17.6885L17.2559 33.2402H53.9756L56.4717 30.1201ZM85.2725 57.3408L81.2119 57.9121H65.4961L65.8799 59.3516H70.9688L54.9004 61.6094C53.1369 60.9897 51.4375 60.2961 49.8066 59.5254L85.2725 54.54V57.3408ZM104.088 55.0801C104.088 55.0801 106.35 56.8006 108.018 58.2793L100.393 59.3516H88.4404V61.0312L85.2725 61.4766V59.3516H70.9688L81.2119 57.9121H85.2725V57.3408L88.4404 56.8955V57.9121H101.736L104.088 55.0801ZM116.446 57.0957L111.558 57.7822L110.988 53.7275L88.4404 56.8955V54.0957L97.1465 52.8721H97.752V54.792H98.2324C99.2881 54.7918 100.871 54.0724 100.92 53.7363V52.3408L115.49 50.2939L116.446 57.0957ZM102.744 41.4004C102.456 41.7364 101.736 42.1197 100.92 42.2637V52.3408L97.1465 52.8721H88.4404V54.0957L85.2725 54.54V52.8721H75.96V54.3604C75.9589 54.6486 74.6157 55.368 73.3203 55.3682H72.8398V38.8564L76.248 40.3916H97.3203L99 38.5195L102.744 41.4004ZM28.2002 34.6797C30.3602 42.0237 34.1522 47.9281 39.2402 52.5361C43.8962 47.4481 46.9196 41.4957 48.5996 34.6797H28.2002ZM75.96 51.4316H97.752V47.3037H75.96V51.4316ZM75.96 45.8643H97.752V41.832H75.96V45.8643ZM98.4238 30.9355C98.2318 31.4155 97.6076 31.8001 96.5996 31.7041C95.6396 32.952 94.1519 34.3918 92.6641 35.6396H102.408L104.712 32.7598C104.712 32.7598 107.256 34.7756 108.888 36.3115C108.792 36.8395 108.312 37.0801 107.592 37.0801H65.6885L65.2559 35.6396H91.1279C92.1359 33.7677 93.2401 31.3201 93.9121 29.4482L98.4238 30.9355ZM77.2559 29.3516C85.1279 31.7996 82.0563 37.3196 79.3203 35.0156C79.1282 33.1917 77.8795 30.9844 76.7275 29.6885L77.2559 29.3516ZM34.5361 22.8721C46.0558 26.424 43.7998 33.9601 40.2959 31.6084C39.4799 28.7764 36.5517 25.2719 34.0557 23.2559L34.5361 22.8721ZM102.216 25.0322C102.216 25.0322 104.808 27.0002 106.392 28.5361C106.248 29.064 105.815 29.3037 105.144 29.3037H68.6162L68.1836 27.8643H100.008L102.216 25.0322ZM83.1123 22.0078C91.3679 23.3999 88.8244 29.1113 85.8965 27.1436C85.5124 25.5116 83.9758 23.4955 82.6318 22.3916L83.1123 22.0078Z" fill="#1F1F1F"/>
</svg>
