<svg width="126" height="93" viewBox="0 0 126 93" fill="none" xmlns="http://www.w3.org/2000/svg">
<path d="M112.931 67.5449L84.6338 71.5215L83.9492 71.4932H83.3711L83.3652 71.6992L81.2607 71.9951L81.2471 71.5889L81.2539 71.501C81.1514 71.5059 80.9538 71.5107 80.6611 71.5156C80.3732 71.5205 80.0408 71.5322 79.665 71.5518C79.2941 71.5664 78.9129 71.5742 78.5225 71.5742C78.4102 71.5742 78.0312 71.5566 77.3867 71.5225C77.1183 71.5078 76.8622 71.501 76.6182 71.501C76.5254 71.501 76.4346 71.5029 76.3467 71.5078L76.3691 72.0869C76.4521 72.1015 76.555 72.1084 76.6768 72.1084C77.238 72.128 77.5723 72.2139 77.6797 72.3652C77.6972 72.3895 77.712 72.4318 77.7256 72.4922L67.3564 73.9502C67.2624 73.7645 67.1579 73.5793 67.0381 73.3975C66.6084 72.7481 66.0194 72.2334 65.2725 71.8525C64.5255 71.4717 63.6443 71.2813 62.6289 71.2812C62.0332 71.2812 61.4932 71.3447 61.0098 71.4717C60.5264 71.5938 60.0527 71.7989 59.5889 72.0869C59.1251 72.3701 58.7392 72.6944 58.4316 73.0605C58.124 73.4268 57.8848 73.8301 57.7139 74.2695C57.5758 74.6291 57.4786 74.9878 57.4219 75.3457L47.9629 76.6758C47.935 76.6406 47.9082 76.6039 47.8779 76.5693C47.4923 76.1251 46.9304 75.8194 46.1934 75.6533C46.6863 75.4288 47.001 75.2676 47.1377 75.1699C47.4061 74.9698 47.6064 74.7528 47.7383 74.5186C47.87 74.2794 47.9365 74.0105 47.9365 73.7129C47.9365 73.4446 47.8924 73.1903 47.8047 72.9512C47.7169 72.7121 47.5798 72.4969 47.3945 72.3066C47.214 72.1114 46.9989 71.9521 46.75 71.8301C46.5012 71.7033 46.3007 71.6202 46.1494 71.5811C45.7148 71.4639 45.3115 71.4082 44.9404 71.4131H44.4717C44.2624 71.4082 44.1332 71.4053 44.084 71.4053C44.0255 71.4053 43.9666 71.4082 43.9082 71.4131L43.6221 71.4199L41.2275 71.501L39.5869 71.5371L39.6084 72.0576C39.9941 72.1064 40.2334 72.1328 40.3262 72.1377C40.541 72.1475 40.6875 72.1797 40.7656 72.2334C40.7997 72.2529 40.8242 72.2774 40.8389 72.3066C40.8778 72.3948 40.9024 72.6217 40.9121 72.9873C40.9463 74.3496 40.9639 75.1924 40.9639 75.5146L40.9736 77.6572L30.2461 79.165C30.1927 79.0378 30.1464 78.9222 30.1094 78.8174C29.9386 78.3587 29.8037 78.0146 29.7061 77.7852C29.5401 77.4043 29.3427 76.913 29.1133 76.3125C28.8839 75.7072 28.6249 75.0848 28.3369 74.4453L27.0625 71.4277L26.9961 71.2959H26.667C26.5205 71.2959 26.3662 71.293 26.2051 71.2881L24.4697 75.8438L22.9902 79.7188C22.8731 79.9433 22.7724 80.085 22.6895 80.1436C22.6297 80.1882 22.4829 80.2359 22.25 80.2891L13.9033 81.4629L11.9619 67.6445L19.3857 66.6006L19.9561 70.6572L55.6025 65.6465C56.4501 65.9933 57.3315 66.3109 58.248 66.5996C58.3841 66.0705 58.5911 65.5983 58.8535 65.1895L76.7275 62.6777V63C79.4635 63.336 80.9043 63.7677 81.8643 64.3438C82.5842 64.8718 83.0165 65.7362 83.0645 66.7441C88.1521 66.3121 88.7764 64.2959 88.7764 61.752V60.9834L111.558 57.7822L112.931 67.5449ZM86.8135 71.501C86.8427 71.6618 86.8574 71.7745 86.8574 71.8379C86.8574 71.8915 86.8476 71.9573 86.8281 72.0352C86.6476 72.0888 86.4569 72.1211 86.2568 72.1309C85.9306 72.1747 85.7497 72.211 85.7148 72.2402C85.6465 72.2988 85.6123 72.3896 85.6123 72.5117C85.6123 72.5996 85.6192 72.7269 85.6338 72.8926C85.6484 73.0147 85.6562 73.227 85.6562 73.5293V73.9326C85.6611 74.0301 85.666 74.1301 85.6709 74.2324C85.6855 74.584 85.6973 74.9404 85.707 75.3018L85.7803 76.7891C85.7803 77.7849 85.7461 78.4512 85.6777 78.7881C85.6094 79.125 85.5166 79.3916 85.3994 79.5869C85.2188 79.8797 84.9626 80.1506 84.6309 80.3994C84.2989 80.6435 83.8836 80.8389 83.3857 80.9854C82.8878 81.1269 82.3064 81.1982 81.6426 81.1982C80.8859 81.1982 80.2362 81.0976 79.6943 80.8975C79.1526 80.6925 78.7422 80.4265 78.4639 80.0996C78.1905 79.7677 78.002 79.3377 77.8994 78.8105C77.8262 78.4493 77.7901 77.9314 77.79 77.2578L77.7969 73.7637C77.7969 73.1244 77.7725 72.7007 77.7256 72.4922L81.2607 71.9951L81.2617 72.0205V72.0791C80.9884 72.1181 80.7049 72.1377 80.4121 72.1377C80.1389 72.1377 79.9581 72.1916 79.8701 72.2988C79.8115 72.3672 79.7822 72.6582 79.7822 73.1709C79.7822 73.3269 79.7842 73.4542 79.7891 73.5518L79.7969 73.8154L79.7822 74.5039L79.8262 75.0898L79.7969 76.3564L79.8916 78.1953C79.9161 78.7273 80.0333 79.1691 80.2432 79.5205C80.3994 79.7793 80.6191 79.9824 80.9023 80.1289C81.3124 80.3339 81.7159 80.4365 82.1113 80.4365C82.5799 80.4365 83.0167 80.375 83.4219 80.2529C83.661 80.1846 83.8858 80.0751 84.0957 79.9238C84.3105 79.7676 84.4599 79.6259 84.543 79.499C84.7188 79.2305 84.8408 78.9785 84.9092 78.7441C85.0019 78.4219 85.0478 77.9215 85.0479 77.2432C85.0479 76.0615 84.9844 74.7305 84.8574 73.251L84.8281 72.8633C84.8135 72.5752 84.7598 72.3818 84.667 72.2842C84.5107 72.1328 84.335 72.0576 84.1396 72.0576L83.4512 72.0723L83.3564 72.0498L83.3652 71.6992L84.6338 71.5215L85.3486 71.5518C85.8172 71.5517 86.2638 71.5303 86.6885 71.4863L86.8135 71.501ZM67.3564 73.9502C67.6991 74.627 67.873 75.3287 67.873 76.0566C67.8729 77.4383 67.4013 78.6222 66.459 79.6084C65.5216 80.5946 64.2156 81.0878 62.541 81.0879C62.126 81.0879 61.7373 81.0615 61.376 81.0078C61.1026 80.9688 60.8632 80.915 60.6582 80.8467C60.2882 80.725 60.0809 80.6536 60.0361 80.6338C59.504 80.3311 59.0761 80.0214 58.7539 79.7041C58.4316 79.3867 58.1582 79.0273 57.9336 78.627C57.8115 78.4024 57.6728 77.997 57.5166 77.4111C57.4141 77.0352 57.3623 76.5957 57.3623 76.0928C57.3623 75.8441 57.3824 75.5952 57.4219 75.3457L59.7666 75.0166C59.7323 75.3276 59.7139 75.6696 59.7139 76.042C59.7139 76.4617 59.7305 76.7618 59.7646 76.9424C59.7744 77.001 59.7891 77.1016 59.8086 77.2432C59.8525 77.6042 59.9043 77.8682 59.9629 78.0342C60.1727 78.654 60.3213 79.0372 60.4092 79.1836C60.5557 79.4326 60.7734 79.6797 61.0615 79.9238C61.208 80.0506 61.4203 80.1681 61.6982 80.2754C61.9765 80.3779 62.2549 80.4287 62.5332 80.4287C63.0605 80.4287 63.5488 80.3066 63.998 80.0625C64.4521 79.8135 64.8164 79.3936 65.0898 78.8027C65.3632 78.212 65.5 77.443 65.5 76.4961C65.5 76.1055 65.4727 75.5752 65.4189 74.9062L65.3828 74.7676C65.3682 74.7285 65.3437 74.6279 65.3096 74.4668C65.2925 74.391 65.2711 74.3175 65.251 74.2451L67.3564 73.9502ZM47.9629 76.6758C48.2901 77.088 48.4561 77.5418 48.4561 78.041C48.4561 78.3632 48.3955 78.7002 48.2734 79.0518C48.1855 79.3154 48.0361 79.5596 47.8262 79.7842C47.548 80.0819 47.2528 80.3066 46.9404 80.458C46.6328 80.6094 46.2051 80.7344 45.6582 80.832C45.3848 80.8808 44.9697 80.9053 44.4131 80.9053L43.168 80.876C42.6407 80.876 42.0135 80.9004 41.2861 80.9492C41.0811 80.959 40.5095 80.9805 39.5723 81.0146L39.5869 80.4287C39.704 80.3995 39.8459 80.373 40.0117 80.3486C40.3289 80.3047 40.588 80.2412 40.7881 80.1582C40.8564 80.046 40.9004 79.9384 40.9199 79.8359C40.959 79.5625 40.9785 79.1592 40.9785 78.627L40.9736 77.6572L42.9824 77.375L42.9775 78.1582L43 79.8428C43.0049 79.9209 43.0293 80.0137 43.0732 80.1211C43.3905 80.2528 43.6857 80.3193 43.959 80.3193C44.5155 80.3193 44.9698 80.2363 45.3213 80.0703C45.6729 79.8994 45.9297 79.6621 46.0908 79.3594C46.2518 79.0568 46.332 78.6784 46.332 78.2246C46.332 77.7561 46.244 77.3798 46.0684 77.0967C46.0377 77.0476 46.006 77.0001 45.9736 76.9551L47.9629 76.6758ZM104.838 71.0469C104.843 71.3838 104.846 71.8919 104.846 72.5703L104.853 73.2217L104.846 73.5957C104.846 73.7224 104.836 73.8322 104.816 73.9248C104.616 73.9882 104.44 74.0273 104.289 74.042C104.162 73.8516 104.022 73.576 103.871 73.2148C103.725 72.8543 103.632 72.6539 103.593 72.6143C103.534 72.5508 103.466 72.5088 103.388 72.4893C103.271 72.4648 102.753 72.4531 101.835 72.4531C101.698 72.4531 101.527 72.4629 101.322 72.4824C101.293 72.6726 101.278 72.8292 101.278 72.9512L101.286 73.9326V76.0859L101.315 78.4072L101.308 79.3594C101.308 79.6963 101.337 79.9502 101.396 80.1211C101.474 80.1553 101.618 80.1875 101.828 80.2168C101.868 80.222 102.049 80.2611 102.37 80.334C102.516 80.3681 102.646 80.4073 102.758 80.4512C102.782 80.6267 102.795 80.7344 102.795 80.7734C102.795 80.8174 102.787 80.8812 102.772 80.9639C102.665 80.9687 102.577 80.9707 102.509 80.9707C102.006 80.9707 101.579 80.9541 101.228 80.9199C100.876 80.8809 100.238 80.8613 99.3154 80.8613C99.1689 80.8613 98.7393 80.8906 98.0264 80.9492C97.7481 80.9687 97.5674 80.9785 97.4844 80.9785C97.4795 80.9053 97.4746 80.8486 97.4697 80.8096L97.4629 80.6416V80.583C97.5703 80.4414 97.7725 80.3359 98.0703 80.2676C98.578 80.1455 98.9296 80.0361 99.125 79.9385C99.1738 79.8458 99.2031 79.7234 99.2129 79.5723C99.2471 78.9864 99.2646 78.0535 99.2646 76.7744L99.2275 74.0059C99.2275 73.2441 99.2129 72.7822 99.1836 72.6211C99.1739 72.5775 99.1569 72.5459 99.1328 72.5264C99.1085 72.5021 99.074 72.4874 99.0303 72.4824C98.8789 72.4629 98.3854 72.4531 97.5508 72.4531C97.092 72.4531 96.7842 72.4971 96.6279 72.585C96.418 72.707 96.1025 73.0391 95.6826 73.5811C95.561 73.7367 95.4707 73.815 95.4121 73.8154C95.1875 73.6982 95.043 73.6025 94.9795 73.5293C95.1309 73.2119 95.3408 72.5771 95.6094 71.625C95.6874 71.3469 95.7441 71.1593 95.7783 71.0615H96.2324C96.2664 71.1149 96.2911 71.1544 96.3057 71.1787C96.4422 71.4128 96.5469 71.5665 96.6201 71.6396C96.6836 71.6592 97.0186 71.6689 97.624 71.6689C97.9998 71.6689 98.3341 71.667 98.627 71.6621L98.7734 71.6396L99.6602 71.6328L101.315 71.6475H103.578L104.011 71.5811C104.074 71.5369 104.143 71.4196 104.216 71.2295C104.235 71.1856 104.262 71.1247 104.296 71.0469L104.618 71.0391C104.667 71.0391 104.74 71.042 104.838 71.0469ZM23.9229 80.0537C23.9381 80.08 23.9556 80.1031 23.9785 80.1211C24.0908 80.2139 24.3057 80.2803 24.623 80.3193C24.6672 80.3291 24.8411 80.3555 25.1436 80.3994C25.1484 80.5752 25.1504 80.6973 25.1504 80.7656C25.1504 80.8193 25.1455 80.876 25.1357 80.9346C24.833 80.9346 24.1104 80.8926 22.9678 80.8096L22.668 80.8613C22.3066 80.9199 21.9619 80.9492 21.6348 80.9492H21.5029L21.5176 80.4512C21.6104 80.4219 21.7744 80.3848 22.0088 80.3408C22.0976 80.3235 22.1778 80.3055 22.25 80.2891L23.9229 80.0537ZM30.2461 79.165C30.3196 79.3402 30.4071 79.5372 30.5117 79.7549C30.6094 79.96 30.6826 80.0801 30.7314 80.1143C30.8194 80.1874 30.9611 80.2364 31.1562 80.2607C31.3564 80.2852 31.5713 80.3408 31.8008 80.4287C31.8252 80.5898 31.8379 80.71 31.8379 80.7881C31.8379 80.8223 31.8349 80.8763 31.8301 80.9492C31.4689 80.9492 31.0711 80.9316 30.6367 80.8975C30.2024 80.8633 29.8114 80.8467 29.4648 80.8467C29.0794 80.8467 28.8008 80.8516 28.6299 80.8613L27.3848 80.9268L27.0254 80.9414C27.0254 80.7707 27.0332 80.6073 27.0479 80.4512L27.8604 80.2754C28.104 80.212 28.2458 80.1631 28.2852 80.1289C28.334 80.0801 28.3584 80.0234 28.3584 79.96C28.3584 79.8967 28.3465 79.8308 28.3223 79.7627L28.1963 79.4531L30.2461 79.165ZM27.4502 77.6094L28.0293 79.0449L28.1963 79.4531L23.9229 80.0537C23.8927 80.0018 23.876 79.9347 23.876 79.8506C23.876 79.7578 23.9229 79.5819 24.0156 79.3232C24.3379 78.4102 24.5498 77.8359 24.6523 77.6016L27.4502 77.6094ZM43.6221 76.1074C44.3154 76.1074 44.8359 76.1758 45.1826 76.3125C45.4855 76.4278 45.749 76.6422 45.9736 76.9551L42.9824 77.375L42.9854 77.0742V76.1738C43.1026 76.1299 43.3147 76.1074 43.6221 76.1074ZM26.0078 74.0059C26.1543 74.3086 26.3449 74.7504 26.5791 75.3311C26.8134 75.9072 27.0039 76.4131 27.1504 76.8477L26.9668 76.8545C26.7617 76.8545 26.0879 76.8477 24.9453 76.833L26.0078 74.0059ZM43.7539 72.0498C44.4717 72.0498 45.0088 72.2061 45.3652 72.5186C45.7217 72.8311 45.9004 73.2217 45.9004 73.6904C45.9004 74.3545 45.7119 74.8232 45.3359 75.0967C44.96 75.3652 44.406 75.4999 43.6738 75.5C43.4104 75.5 43.1805 75.4853 42.9854 75.4561C42.9805 75.2415 42.9775 75.0801 42.9775 74.9727L42.9854 74.3574C42.9854 73.6106 42.9726 73.0293 42.9482 72.6143C42.9385 72.4046 42.9336 72.2431 42.9336 72.1309C43.2754 72.0771 43.5488 72.0498 43.7539 72.0498ZM62.3506 72.0059C63.1219 72.0059 63.7618 72.2159 64.2695 72.6357C64.7335 73.0159 65.059 73.5529 65.251 74.2451L59.7666 75.0166C59.7957 74.7527 59.8359 74.5107 59.8896 74.291C60.0068 73.8077 60.2041 73.3633 60.4824 72.958C60.6484 72.7188 60.8955 72.502 61.2227 72.3066C61.5498 72.1065 61.9258 72.0059 62.3506 72.0059ZM19.293 65.9463C18.5145 66.1868 17.7082 66.4222 16.8721 66.6484L16.5361 65.832C17.4392 65.4902 18.3032 65.1429 19.1309 64.793L19.293 65.9463ZM46.874 59.9375C47.7391 60.8049 48.6663 61.6084 49.6631 62.3447L19.3857 66.6006L19.293 65.9463C22.4867 64.9595 25.2028 63.8552 27.5117 62.6582L46.874 59.9375ZM55.9248 61.4648C57.6128 62.1087 59.3985 62.6252 61.2725 63L61.1758 63.4805C60.2553 63.7107 59.4242 64.3004 58.8535 65.1895L55.6025 65.6465C53.3995 64.7451 51.4257 63.6467 49.6631 62.3447L55.9248 61.4648ZM22.1689 63.4092C21.216 63.8767 20.2049 64.3389 19.1309 64.793L19 63.8555L22.1689 63.4092ZM52.584 24.4082C52.3919 24.9361 51.8156 25.3684 50.7598 25.2725C48.9357 27.9124 46.0076 31.3201 43.1758 33.96H50.8564L53.2559 31.0322C53.2637 31.0381 55.9465 33.0502 57.624 34.584C57.528 35.112 57.0001 35.3515 56.3281 35.3516H40.248V42.2158C40.248 43.5117 40.1998 44.7598 40.0078 46.0557H53.6396L56.0879 43.0322C56.1 43.0416 58.8753 45.1949 60.5996 46.7275C60.4556 47.2555 59.9757 47.4961 59.3037 47.4961H40.7764C43.0096 52.4686 46.6657 56.4978 51.4111 59.2998L46.874 59.9375C43.6932 56.7483 41.3776 52.6678 39.7676 47.6396C38.7041 53.0991 35.624 58.4524 27.5117 62.6582L22.1689 63.4092C31.7219 58.7222 35.3616 53.3705 36.5039 47.4961H17.7842L17.3516 46.0557H36.7441C36.8881 44.8078 36.9844 43.5594 36.9844 42.3115V35.3516H20.8076L20.4238 33.96H41.9277C43.8957 30.7441 46.0555 26.2322 47.3516 22.8242L52.584 24.4082ZM85.5596 61.6084C85.5595 62.4241 85.2716 62.7598 84.2158 62.7598C83.411 62.7597 80.5323 62.5578 78.5879 62.416L85.5596 61.4355V61.6084ZM78.5879 62.416L76.7275 62.6777V62.2803C76.7275 62.2803 77.5161 62.3379 78.5879 62.416ZM85.5596 57.3008L55.9248 61.4648C54.3297 60.8564 52.8222 60.133 51.4111 59.2998L85.5596 54.5V57.3008ZM88.7764 60.9834L85.5596 61.4355V57.3008L88.7764 56.8486V60.9834ZM116.446 57.0957L111.558 57.7822L110.988 53.7275L88.7764 56.8486V54.0479L115.49 50.2939L116.446 57.0957ZM101.016 23.7842C101.016 23.7842 103.848 25.9923 105.624 27.5283C105.48 28.0561 105.048 28.2959 104.376 28.2959H88.7764V41.208H101.688L104.184 38.04C104.184 38.04 107.112 40.2479 108.936 41.8799C108.792 42.3599 108.312 42.5996 107.592 42.5996H88.7764V54.0479L85.5596 54.5V42.5996H65.4961L65.0645 41.208H85.5596V28.2959H69.0479L68.6641 26.9043H98.5195L101.016 23.7842ZM26.6641 23.0645C38.6637 27.1444 36.2162 34.9195 32.5684 32.4238C31.7523 29.4478 28.6317 25.6562 26.1357 23.4482L26.6641 23.0645Z" fill="#D9D9D9"/>
</svg>
