<svg width="126" height="93" viewBox="0 0 126 93" fill="none" xmlns="http://www.w3.org/2000/svg">
<path d="M112.931 67.5449L79.8369 72.1953C80.0496 72.1304 80.2921 72.0759 80.5654 72.0352C80.5703 71.9476 80.5732 71.8818 80.5732 71.8379L80.5879 71.6182C80.5879 71.5792 80.5849 71.5252 80.5801 71.457C80.5117 71.4473 80.4531 71.4424 80.4043 71.4424C80.3652 71.4424 80.1895 71.457 79.877 71.4863C79.5693 71.5107 79.1592 71.5254 78.6465 71.5303C78.2903 71.54 77.9853 71.5518 77.7314 71.5664C77.6289 71.5713 77.5527 71.5742 77.5039 71.5742C77.3721 71.5742 77.2842 71.5938 77.2402 71.6328C77.22 71.6588 77.1076 71.8934 76.9033 72.3359C76.8566 72.4386 76.8131 72.5353 76.7725 72.626L72.2168 73.2666C71.9716 72.7068 71.7721 72.2714 71.6152 71.9619C71.5323 71.8009 71.4491 71.6718 71.3662 71.5742L71.0293 71.5596C70.9414 71.5547 70.873 71.5498 70.8242 71.5449L68.6787 71.4717C68.4346 71.4717 68.2217 71.4785 68.041 71.4932V71.7207C68.041 71.8036 68.0459 71.9065 68.0557 72.0283C68.1338 72.0478 68.2413 72.0723 68.3779 72.1016C68.9248 72.2041 69.2373 72.3086 69.3154 72.416C69.3984 72.5234 69.4404 72.9219 69.4404 73.6104C69.4404 73.6205 69.4384 73.6361 69.4375 73.6572L59.1689 75.1006C59.0425 74.5156 58.8017 73.9473 58.4395 73.3975C58.0098 72.7481 57.4208 72.2334 56.6738 71.8525C55.9269 71.4717 55.0457 71.2813 54.0303 71.2812C53.4346 71.2812 52.8945 71.3447 52.4111 71.4717C51.9278 71.5938 51.4541 71.7989 50.9902 72.0869C50.5265 72.3701 50.1406 72.6944 49.833 73.0605C49.5254 73.4268 49.2861 73.8301 49.1152 74.2695C48.881 74.8797 48.7637 75.4874 48.7637 76.0928C48.7637 76.2554 48.7705 76.4112 48.7812 76.5605L38.6494 77.9844V77.543C38.6299 76.8789 38.6221 76.4395 38.627 76.2246L38.6416 75.2949L38.6348 74.5918V73.6611C38.6348 73.6367 38.6318 73.5146 38.627 73.2949V73.1123C38.627 73.0587 38.6319 72.9802 38.6416 72.8779L38.6494 72.7822L38.6416 72.5918V72.4678L38.6855 72.3213C38.8271 72.248 38.9668 72.1914 39.1035 72.1523C39.2453 72.1084 39.5405 72.0399 39.9893 71.9473C40.0088 71.7911 40.0215 71.618 40.0264 71.4277C39.8264 71.4131 39.6552 71.4053 39.5137 71.4053C39.3283 71.4053 39.1473 71.4249 38.9717 71.4639C38.8887 71.4688 38.8027 71.4736 38.7148 71.4785L37.7627 71.5078C37.6993 71.5127 37.614 71.5156 37.5068 71.5156C37.0381 71.5156 36.5762 71.4863 36.1221 71.4277L35.4121 71.4199C35.3877 71.4199 35.3213 71.4229 35.2139 71.4277C35.1846 71.5351 35.165 71.6741 35.1553 71.8447C35.2383 71.874 35.3262 71.8984 35.4189 71.918C35.9316 72.04 36.2734 72.1504 36.4443 72.248C36.4979 72.2773 36.5322 72.3086 36.5469 72.3428L36.5986 72.8555L36.6426 74.1006L36.6279 74.4307C36.623 75.0798 36.6152 75.4873 36.6055 75.6533C36.4199 75.6875 36.2441 75.7051 36.0781 75.7051L34.7969 75.7412L33.4785 75.7344H32.9512L31.8672 75.7119C31.7744 75.707 31.6592 75.6924 31.5225 75.668C31.5078 75.3951 31.501 75.222 31.501 75.1484C31.501 75.0654 31.5029 74.9844 31.5078 74.9062C31.5176 74.7744 31.5225 74.6963 31.5225 74.6719C31.5225 74.628 31.5205 74.5622 31.5156 74.4746L31.5225 73.5439C31.5225 73.505 31.5205 73.4588 31.5156 73.4053V73.3467L31.5303 73.0977L31.5371 72.7754L31.5303 72.6582L31.5078 72.3867C31.5078 72.294 31.5616 72.2236 31.6689 72.1748L32.958 71.9697C32.9775 71.8574 32.9873 71.7617 32.9873 71.6836C32.9873 71.6397 32.9854 71.5664 32.9805 71.4639C32.8585 71.4444 32.7068 71.4346 32.5264 71.4346C32.4044 71.4346 32.2919 71.4473 32.1895 71.4717C31.5645 71.5205 31.1709 71.5449 31.0098 71.5449C30.9073 71.5449 30.7879 71.542 30.6514 71.5371C30.5197 71.5274 30.3875 71.5225 30.2559 71.5225C29.9678 71.5176 29.5254 71.4834 28.9297 71.4199C28.8613 71.4248 28.7393 71.4277 28.5635 71.4277C28.3877 71.4277 28.251 71.4375 28.1533 71.457C28.1241 71.5594 28.1094 71.6397 28.1094 71.6982C28.1094 71.7373 28.1172 71.8281 28.1318 71.9697C28.2002 71.994 28.3002 72.0137 28.4316 72.0283L28.542 72.0576C28.7566 72.0723 28.9591 72.0967 29.1494 72.1309C29.1982 72.1406 29.2451 72.1475 29.2891 72.1523C29.3377 72.1572 29.382 72.167 29.4209 72.1816C29.455 72.2646 29.4746 72.3233 29.4795 72.3574C29.5234 72.7383 29.5449 73.0703 29.5449 73.3535V73.6689L29.5527 74.3057L29.5381 74.9209L29.5527 75.1338C29.5527 75.9392 29.5449 76.4424 29.5303 76.6426L29.5234 76.8184C29.5234 77.1455 29.5332 77.639 29.5527 78.2979L29.501 79.2705L13.9033 81.4629L11.9619 67.6445L19.3857 66.6006L19.9561 70.6572L74.4756 62.9941C71.9366 64.2594 68.7581 65.4072 64.7764 66.4561L65.1602 67.2236C72.552 65.8596 77.6573 64.1491 81.1943 62.0498L94.75 60.1436C98.4527 62.3915 102.065 64.9393 104.28 66.9844C108.351 67.7304 109.424 62.8678 101.91 59.1377L111.558 57.7822L112.931 67.5449ZM59.1689 75.1006C59.2368 75.4143 59.2744 75.7328 59.2744 76.0566C59.2743 77.4383 58.8026 78.6222 57.8604 79.6084C56.9229 80.5946 55.617 81.0878 53.9424 81.0879C53.5274 81.0879 53.1387 81.0615 52.7773 81.0078C52.504 80.9688 52.2646 80.915 52.0596 80.8467C51.6896 80.725 51.4823 80.6536 51.4375 80.6338C50.9054 80.3311 50.4775 80.0214 50.1553 79.7041C49.833 79.3867 49.5596 79.0273 49.335 78.627C49.2129 78.4024 49.0742 77.997 48.918 77.4111C48.8486 77.1567 48.8037 76.8731 48.7812 76.5605L51.1191 76.2314C51.1237 76.5532 51.1372 76.7902 51.166 76.9424C51.1758 77.001 51.1904 77.1016 51.21 77.2432C51.2539 77.6042 51.3057 77.8682 51.3643 78.0342C51.5741 78.654 51.7227 79.0372 51.8105 79.1836C51.957 79.4326 52.1748 79.6797 52.4629 79.9238C52.6094 80.0506 52.8216 80.1681 53.0996 80.2754C53.3779 80.3779 53.6563 80.4287 53.9346 80.4287C54.4619 80.4287 54.9502 80.3066 55.3994 80.0625C55.8535 79.8135 56.2178 79.3936 56.4912 78.8027C56.7645 78.212 56.9013 77.443 56.9014 76.4961C56.9014 76.2127 56.8828 75.8557 56.8545 75.4258L59.1689 75.1006ZM89.04 71.4717C89.3181 71.4863 89.5597 71.5078 89.7646 71.5371C90.1504 71.5908 90.5977 71.6182 91.1055 71.6182C91.2816 71.6181 91.7331 71.6035 92.46 71.5742C93.5488 71.5303 94.5332 71.5078 95.4121 71.5078L96.7373 71.4932C97.0352 71.4932 97.4746 71.5303 98.0557 71.6035C98.1434 71.7011 98.1875 71.8332 98.1875 71.999V73.5078L98.2021 73.8076C98.2021 73.8369 98.2002 73.8809 98.1953 73.9395L97.8945 73.9541C97.8555 73.9541 97.7725 73.9492 97.6455 73.9395C97.6016 73.8419 97.5429 73.698 97.4697 73.5078L97.1768 72.9873C97.0645 72.7676 96.9082 72.543 96.708 72.3135C96.5859 72.2793 96.4297 72.2598 96.2393 72.2549C96.1905 72.25 96.0417 72.2383 95.793 72.2188C95.339 72.1797 94.8504 72.1602 94.3281 72.1602C93.7326 72.1602 93.2001 72.1699 92.7314 72.1895C92.7168 72.3122 92.709 72.793 92.709 73.6318L92.7236 74.8623V75.7852C92.8457 75.7998 92.9512 75.8076 93.0391 75.8076C93.9128 75.8076 94.5352 75.79 94.9062 75.7559C95.277 75.7217 95.5067 75.6757 95.5947 75.6172C95.6825 75.5538 95.7608 75.4461 95.8291 75.2949C95.873 75.1875 95.959 74.8281 96.0859 74.2178L96.1807 74.2109L96.6055 74.2178C96.625 74.6523 96.6348 74.9824 96.6348 75.207C96.6348 75.7194 96.6299 76.0489 96.6201 76.1953C96.6152 76.3418 96.6133 76.457 96.6133 76.54C96.6133 76.6719 96.6201 76.8842 96.6348 77.1768C96.6494 77.4648 96.6572 77.6797 96.6572 77.8213V77.9824H96.1367C96.1172 77.9043 96.081 77.7431 96.0273 77.499C95.9298 77.0452 95.8418 76.7619 95.7637 76.6494C95.7052 76.5616 95.6071 76.4961 95.4707 76.4521C95.3731 76.418 95.0114 76.4004 94.3867 76.4004C93.6494 76.4004 93.0947 76.4199 92.7236 76.459C92.7188 76.5859 92.7168 76.6689 92.7168 76.708C92.7168 77.2891 92.7266 77.7725 92.7461 78.1582L92.7314 79.7402C92.7314 79.9258 92.7969 80.0527 92.9287 80.1211C93.1289 80.2236 93.7422 80.2754 94.7676 80.2754C95.4461 80.2754 96.0226 80.2236 96.4961 80.1211C96.8231 80.0478 97.1115 79.8846 97.3604 79.6309C97.6923 79.3038 97.9678 78.8445 98.1875 78.2539C98.3389 78.2393 98.4639 78.2314 98.5615 78.2314C98.6152 78.2315 98.6956 78.2344 98.8027 78.2393C98.7881 78.3611 98.7764 78.464 98.7666 78.5469L98.7227 78.7666L98.4512 80.1504L98.3193 80.9854C98.0022 81 97.7509 81.0078 97.5654 81.0078C97.292 81.0078 96.5615 80.9834 95.375 80.9346C94.54 80.9004 93.5342 80.8828 92.3574 80.8828C91.7716 80.8828 91.0515 80.9072 90.1973 80.9561H89.8896L89.0029 80.9854V80.4805C89.0957 80.4561 89.2812 80.4287 89.5596 80.3994C90.0674 80.3408 90.4189 80.2627 90.6143 80.165C90.6679 80.0235 90.6953 79.8455 90.6953 79.6309C90.6953 79.5479 90.6924 79.406 90.6875 79.2061L90.6953 78.9785L90.6729 76.2178L90.6807 75.3896L90.6436 74.2178L90.6514 73.3906L90.585 72.4824C90.585 72.4581 90.58 72.4089 90.5703 72.3359C90.5215 72.2822 90.4482 72.2481 90.3506 72.2334C90.2969 72.2236 90.2236 72.209 90.1309 72.1895C89.8525 72.1309 89.584 72.0967 89.3252 72.0869C89.2324 72.082 89.125 72.0723 89.0029 72.0576L89.04 71.4717ZM70.0264 76.9277L69.9746 79.1768C69.9747 79.5476 70.043 79.8135 70.1797 79.9746C70.3213 80.1309 70.6221 80.2656 71.0811 80.3779L71.4326 80.4658V81C71.1494 80.9951 70.8438 80.9756 70.5166 80.9414C70.1943 80.9023 69.7646 80.8828 69.2275 80.8828C69.1153 80.8828 68.6345 80.9053 67.7852 80.9492L67.8066 80.4512C68.417 80.373 68.8057 80.248 68.9717 80.0771C69.079 79.9598 69.1622 79.6547 69.2207 79.1621L69.3154 76.5547L69.4258 73.9033C69.4326 73.7902 69.4355 73.7078 69.4375 73.6572L70.083 73.5664L70.0264 76.9277ZM79.8369 72.1953C79.6926 72.2394 79.5618 72.2875 79.4453 72.3428C79.2451 72.4404 79.1445 72.5625 79.1445 72.709V72.8193L79.2695 75.0605C79.2842 75.2668 79.3233 76.2847 79.3867 78.1143C79.4014 78.5244 79.4326 79.0449 79.4814 79.6748C79.4912 79.7527 79.4961 79.8136 79.4961 79.8574C79.501 79.9746 79.5254 80.0508 79.5693 80.085C79.6193 80.1194 80.0589 80.2611 80.8877 80.5098C80.8926 80.5876 80.8955 80.6466 80.8955 80.6855C80.8955 80.7879 80.8926 80.8908 80.8877 80.9932C80.7559 80.9932 80.4238 80.9658 79.8916 80.9121C79.3594 80.8535 78.8613 80.8242 78.3975 80.8242C77.6895 80.8242 77.001 80.8535 76.332 80.9121C76.2443 80.9219 76.159 80.9297 76.0762 80.9346L76.0908 80.4287C76.291 80.3507 76.5569 80.2851 76.8887 80.2314C77.123 80.1924 77.2725 80.126 77.3359 80.0332C77.3993 79.9402 77.4307 79.6813 77.4307 79.2568C77.4307 79.0957 77.4287 78.9541 77.4238 78.832C77.3994 78.3193 77.3848 77.6064 77.3799 76.6934L77.2549 74.1084C77.2402 73.7427 77.2236 73.4884 77.2041 73.3467L75.3799 77.5361C75.3359 77.6338 75.2704 77.7756 75.1826 77.9609C75.0704 78.2001 74.9941 78.3633 74.9551 78.4512C74.5791 79.3545 74.3184 80.0459 74.1719 80.5244C74.1328 80.6464 74.0741 80.8049 73.9961 81L73.4316 80.9932L73.0361 79.8721C72.9189 79.5791 72.7188 79.1348 72.4355 78.5391C72.2697 78.1927 72.1406 77.912 72.0479 77.6973C72.0039 77.6094 71.9717 77.543 71.9521 77.499L71.8643 77.3164C71.8594 77.2874 71.8524 77.2626 71.8428 77.2432L70.751 74.8916L70.1299 73.5596L72.2168 73.2666C72.254 73.3515 72.2938 73.4386 72.333 73.5293L72.4141 73.7275L73.5566 76.21C73.5811 76.2686 73.6202 76.3546 73.6738 76.4668C73.747 76.6424 73.8224 76.8107 73.9004 76.9717C73.9785 77.1279 74.0596 77.3018 74.1426 77.4922C74.2304 77.6824 74.3136 77.8507 74.3916 77.9971C74.4599 77.8801 74.5255 77.7507 74.5889 77.6094C74.7842 77.1602 74.9746 76.7471 75.1602 76.3711C75.4824 75.707 75.9199 74.6914 76.4717 73.3242C76.539 73.1559 76.6393 72.9232 76.7725 72.626L79.8369 72.1953ZM31.5078 79.7334C31.5078 79.8602 31.5156 79.9894 31.5303 80.1211L31.6035 80.165L32.6797 80.334C32.7333 80.3535 32.7754 80.3652 32.8047 80.3701C32.868 80.3848 32.922 80.4073 32.9658 80.4365C32.9804 80.5485 32.9873 80.6241 32.9873 80.6631C32.9873 80.7266 32.9775 80.8145 32.958 80.9268C32.7825 80.9316 32.6337 80.9346 32.5117 80.9346C32.4043 80.9346 32.3037 80.9316 32.2109 80.9268C32.1672 80.9268 32.1258 80.9248 32.0869 80.9199L31.0537 80.876C30.8096 80.8516 30.4678 80.8389 30.0283 80.8389L29.875 80.8467C29.6699 80.8564 29.5498 80.8633 29.5156 80.8682C29.2129 80.9072 28.7393 80.9268 28.0947 80.9268C28.0947 80.7804 28.1094 80.6072 28.1387 80.4072L29.0547 80.2461C29.1669 80.2217 29.301 80.1825 29.457 80.1289L29.501 79.2705L31.5078 78.9883V79.7334ZM38.6494 78.583L38.6641 79.4473C38.6641 79.6084 38.6592 79.8037 38.6494 80.0332C38.7518 80.0624 38.8468 80.0869 38.9346 80.1064C39.3936 80.2041 39.7402 80.3047 39.9746 80.4072L39.9971 80.9199C39.8018 80.9248 39.6865 80.9268 39.6523 80.9268C39.418 80.9268 39.1494 80.9121 38.8467 80.8828C38.4463 80.8389 37.8018 80.8174 36.9131 80.8174C36.5127 80.8174 35.9951 80.8486 35.3604 80.9121C35.292 80.9121 35.209 80.8975 35.1113 80.8682C35.1162 80.6439 35.129 80.4854 35.1484 80.3926L35.7119 80.2607L36.3057 80.165C36.3642 80.1504 36.4398 80.1288 36.5322 80.0996C36.5832 79.7246 36.6111 79.1142 36.6182 78.2695L38.6494 77.9844V78.583ZM32.5332 76.5029L32.5996 76.5107L35.998 76.5469C36.2078 76.5518 36.4035 76.5615 36.584 76.5762C36.584 76.9375 36.5986 77.248 36.6279 77.5068L36.6201 78.1289C36.6199 78.1765 36.6185 78.2234 36.6182 78.2695L31.5078 78.9883V77.4629C31.5078 77.4238 31.5029 77.3379 31.4932 77.2061V77.1113L31.5225 76.5615C31.6396 76.5273 31.7451 76.5107 31.8379 76.5107H32.043C32.1308 76.5107 32.2385 76.5078 32.3652 76.5029C32.409 76.4981 32.4484 76.4961 32.4824 76.4961L32.5332 76.5029ZM53.752 72.0059C54.5232 72.0059 55.1632 72.2159 55.6709 72.6357C56.1834 73.0557 56.5303 73.6662 56.7109 74.4668C56.7451 74.6279 56.7695 74.7285 56.7842 74.7676L56.8203 74.9062C56.8351 75.0898 56.8438 75.2632 56.8545 75.4258L51.1191 76.2314C51.1183 76.1712 51.1152 76.1081 51.1152 76.042C51.1152 75.3535 51.1738 74.7695 51.291 74.291C51.4082 73.8077 51.6055 73.3633 51.8838 72.958C52.0498 72.7188 52.2969 72.502 52.624 72.3066C52.9511 72.1065 53.3272 72.0059 53.752 72.0059ZM70.1299 73.5596L70.083 73.5664L70.085 73.4639L70.1299 73.5596ZM19.3857 66.6006L19.1426 64.8721H31.6855L19.3857 66.6006ZM19 63.8555L19.1426 64.8721H17.1123L16.7275 63.4805H21.668L19 63.8555ZM57.7861 61.2031C58.906 62.0716 60.292 63.1709 61.3682 64.1035C61.2242 64.6314 60.6962 64.872 60.0244 64.8721H31.6855L41.5879 63.4805H52.7764L54.1875 61.709L57.7861 61.2031ZM36.4082 63.4805H21.668L36.4082 61.4082V63.4805ZM82.9014 54.874C82.4406 55.9496 81.8506 56.9655 81.0947 57.9277L57.7861 61.2031C56.6653 60.3339 55.8105 59.6965 55.7998 59.6885L54.1875 61.709L41.5879 63.4805H41.4004V60.707L71.9756 56.4092V57H72.6963C74.2963 56.9999 75.8942 56.3023 76.4863 55.7754L82.9014 54.874ZM86.4854 57.1699C85.305 58.9898 83.6184 60.611 81.1943 62.0498L74.4756 62.9941C77.4996 61.4872 79.6147 59.8118 81.0947 57.9277L86.4854 57.1699ZM53.832 30.3115C53.832 30.3115 57.2398 32.8557 59.2559 34.6797C59.1119 35.2077 58.632 35.4482 57.96 35.4482H41.4004V47.7842H49.1279L52.0078 44.1357C52.0078 44.1357 55.2721 46.5844 57.2881 48.3604C57.1919 48.888 56.664 49.1279 55.9443 49.1279H41.4004V60.707L36.4082 61.4082V49.1279H22.3438L21.96 47.7842H36.4082V35.4482H20.3281L19.9443 34.0557H50.8564L53.832 30.3115ZM92.7744 56.2861C96.6784 57.0177 99.6743 58.0277 101.91 59.1377L94.75 60.1436C92.7173 58.9095 90.6568 57.7668 88.7842 56.8477L92.7744 56.2861ZM116.446 57.0957L111.558 57.7822L110.988 53.7275L101.207 55.1016C101.577 54.9215 101.816 54.7544 101.832 54.6484V52.2129L115.49 50.2939L116.446 57.0957ZM97.1279 55.6748L92.7744 56.2861C91.2339 55.9974 89.552 55.7508 87.7197 55.5596L87.3838 56.1836C87.8361 56.3877 88.3035 56.6117 88.7842 56.8477L86.4854 57.1699C87.1001 56.2221 87.5777 55.2212 87.9502 54.1641L97.1279 52.874V55.6748ZM103.752 22.4404C103.779 22.4613 106.976 24.8956 108.936 26.6162C108.791 27.144 108.264 27.3838 107.592 27.3838H88.5361C87.1921 29.9278 85.4637 32.7117 83.9277 34.6797H96.6963L98.9043 32.2803L103.56 35.8799C103.272 36.2158 102.696 36.5523 101.832 36.6963V52.2129L97.1279 52.874V36.0723H76.7275V55.416C76.7275 55.515 76.6402 55.6384 76.4863 55.7754L71.9756 56.4092V32.6162L77.0645 34.6797H82.2959C82.5839 32.6637 82.8236 29.7837 83.0156 27.3838H65.9277L65.4961 25.9922H100.92L103.752 22.4404ZM101.207 55.1016C100.403 55.4932 98.9811 55.9442 97.8965 55.9443H97.1279V55.6748L101.207 55.1016ZM91.0322 39.8643C90.9362 40.5361 90.504 41.0161 89.4004 41.1602C89.2741 46.2132 89.2343 50.5195 87.9502 54.1641L82.9014 54.874C84.6984 50.6796 84.5297 45.5851 84.5518 39.2881L91.0322 39.8643ZM31.3682 22.6318C47.0159 24.3599 44.5201 34.8236 39.2402 32.0879C37.8483 28.8721 34.1043 25.1285 30.9844 23.0645L31.3682 22.6318Z" fill="#D9D9D9"/>
</svg>
